<?xml version="1.0" encoding="utf-8"?>
<svg xmlns="http://www.w3.org/2000/svg" xmlns:xlink="http://www.w3.org/1999/xlink" style="margin: auto; background: whitesmoke; display: block; shape-rendering: auto;" width="110px" height="110px" viewBox="0 0 100 100" preserveAspectRatio="xMidYMid">
<g transform="translate(50 50)">
<g>
<animateTransform attributeName="transform" type="rotate" values="0;36" keyTimes="0;1" dur="0.33444816053511706s" repeatCount="indefinite"></animateTransform><path d="M29.287369291214944 -6.5 L38.287369291214944 -6.5 L38.287369291214944 6.5 L29.287369291214944 6.5 A30 30 0 0 1 27.514583617028922 11.956073284382445 L27.514583617028922 11.956073284382445 L34.79573656640345 17.246140555014705 L27.1545282866013 27.76336148188902 L19.873375337226772 22.473294211256764 A30 30 0 0 1 15.232162187438878 25.845332946115384 L15.232162187438878 25.845332946115384 L18.013315136813404 34.40484159277177 L5.6495804249764054 38.42206251964608 L2.868427475601878 29.8625538729897 A30 30 0 0 1 -2.8684274756018744 29.8625538729897 L-2.8684274756018744 29.8625538729897 L-5.6495804249764 38.42206251964608 L-18.013315136813393 34.404841592771774 L-15.232162187438867 25.845332946115388 A30 30 0 0 1 -19.873375337226772 22.47329421125676 L-19.873375337226772 22.47329421125676 L-27.1545282866013 27.76336148188902 L-34.79573656640345 17.246140555014712 L-27.51458361702892 11.956073284382455 A30 30 0 0 1 -29.287369291214944 6.499999999999997 L-29.287369291214944 6.499999999999997 L-38.287369291214944 6.499999999999998 L-38.287369291214944 -6.499999999999989 L-29.287369291214944 -6.49999999999999 A30 30 0 0 1 -27.514583617028922 -11.956073284382448 L-27.514583617028922 -11.956073284382448 L-34.79573656640345 -17.246140555014705 L-27.154528286601305 -27.763361481889014 L-19.87337533722678 -22.473294211256757 A30 30 0 0 1 -15.232162187438874 -25.845332946115384 L-15.232162187438874 -25.845332946115384 L-18.013315136813404 -34.40484159277177 L-5.649580424976417 -38.42206251964608 L-2.8684274756018886 -29.8625538729897 A30 30 0 0 1 2.868427475601877 -29.8625538729897 L2.868427475601877 -29.8625538729897 L5.649580424976403 -38.42206251964608 L18.01331513681339 -34.404841592771774 L15.232162187438863 -25.84533294611539 A30 30 0 0 1 19.873375337226772 -22.473294211256764 L19.873375337226772 -22.473294211256764 L27.1545282866013 -27.763361481889024 L34.79573656640345 -17.24614055501472 L27.51458361702892 -11.956073284382459 A30 30 0 0 1 29.287369291214944 -6.500000000000001 M0 -15A15 15 0 1 0 0 15 A15 15 0 1 0 0 -15" fill="#c2c06c"></path></g></g>
<!-- [ldio] generated by https://loading.io/ --></svg>